<?xml version="1.0" standalone="no"?>
<!DOCTYPE svg PUBLIC "-//W3C//DTD SVG 20010904//EN"
 "http://www.w3.org/TR/2001/REC-SVG-20010904/DTD/svg10.dtd">
<svg version="1.0" xmlns="http://www.w3.org/2000/svg"
 width="1200.000000pt" height="1200.000000pt" viewBox="0 0 1200.000000 1200.000000"
 preserveAspectRatio="xMidYMid meet">
<metadata>
Created by potrace 1.11, written by Peter Selinger 2001-2013
</metadata>
<g transform="translate(0.000000,1200.000000) scale(0.100000,-0.100000)"
fill="#000000" stroke="none">
<path d="M3505 11514 c-90 -22 -117 -31 -170 -56 -155 -76 -268 -213 -316
-383 -21 -74 -21 -1436 0 -1510 58 -208 218 -368 426 -426 65 -18 245 -18 310
0 158 44 300 158 372 297 71 139 68 102 68 884 0 766 1 744 -57 865 -73 150
-201 259 -365 311 -48 15 -230 27 -268 18z"/>
<path d="M8305 11514 c-90 -22 -117 -31 -170 -56 -155 -76 -268 -213 -316
-383 -21 -74 -21 -1436 0 -1510 58 -208 218 -368 426 -426 65 -18 245 -18 310
0 158 44 300 158 372 297 71 139 68 102 68 884 0 766 1 744 -57 865 -73 150
-201 259 -365 311 -48 15 -230 27 -268 18z"/>
<path d="M1285 10305 c-352 -66 -619 -342 -675 -695 -14 -90 -14 -8330 0
-8420 58 -365 345 -649 708 -700 55 -8 1402 -10 4732 -8 4436 3 4658 4 4714
21 321 96 517 292 613 613 17 56 18 259 21 4234 2 2983 0 4197 -8 4252 -52
363 -335 650 -700 708 -40 6 -333 10 -757 10 l-691 0 -4 -372 c-5 -399 -6
-411 -62 -550 -186 -459 -745 -654 -1185 -412 -223 122 -380 348 -421 604 -5
36 -10 215 -10 398 l0 332 -1559 0 -1559 0 -4 -372 c-5 -399 -6 -411 -62 -550
-186 -459 -745 -654 -1185 -412 -223 122 -380 348 -421 604 -5 36 -10 215 -10
398 l0 332 -702 -1 c-538 -1 -719 -4 -773 -14z m9427 -2297 c73 -34 142 -103
176 -176 l27 -57 0 -3275 0 -3275 -27 -57 c-34 -73 -103 -142 -176 -176 l-57
-27 -4655 0 -4655 0 -57 27 c-73 34 -142 103 -176 176 l-27 57 0 3275 0 3275
27 57 c45 96 138 174 235 197 22 5 1994 8 4673 8 l4635 -2 57 -27z"/>
<path d="M5650 6080 l-345 -809 -35 -5 c-19 -3 -406 -37 -860 -77 -454 -39
-833 -74 -843 -78 -15 -5 123 -128 647 -581 366 -316 665 -580 665 -587 1 -6
-89 -393 -199 -859 -110 -466 -198 -849 -196 -852 3 -2 345 199 761 448 l755
452 755 -452 c416 -249 758 -450 760 -448 3 3 -85 386 -195 852 -110 466 -200
853 -199 859 0 7 299 271 665 587 524 453 662 576 647 581 -10 4 -389 39 -843
78 -454 40 -841 74 -860 77 l-35 5 -345 809 c-190 446 -347 810 -350 810 -3 0
-160 -364 -350 -810z"/>
</g>
</svg>
